<svg xmlns="http://www.w3.org/2000/svg" width="512" height="512" viewBox="0 0 512 512" fill="#fff"><path d="M256.004 6.32C114.634 6.32 0 120.93 0 262.32c0 113.107 73.352 209.066 175.068 242.918 12.793 2.37 17.496-5.555 17.496-12.316 0-6.102-.24-26.27-.348-47.662-71.224 15.488-86.252-30.205-86.252-30.205-11.64-29.588-28.424-37.458-28.424-37.458-23.226-15.89 1.755-15.562 1.755-15.562 25.7 1.805 39.238 26.383 39.238 26.383 22.836 39.135 59.888 27.82 74.502 21.28 2.294-16.544 8.926-27.84 16.253-34.233C152.423 368.995 92.65 347.04 92.65 248.95c0-27.95 10.002-50.788 26.38-68.715-2.658-6.45-11.427-32.486 2.476-67.75 0 0 21.503-6.876 70.42 26.245 20.418-5.674 42.318-8.518 64.077-8.617 21.75.1 43.668 2.943 64.128 8.617 48.868-33.122 70.33-26.245 70.33-26.245 13.935 35.264 5.174 61.3 2.517 67.75 16.41 17.928 26.347 40.766 26.347 68.714 0 98.326-59.89 119.974-116.895 126.31 9.18 7.946 17.36 23.524 17.36 47.407 0 34.254-.297 61.822-.297 70.254 0 6.815 4.61 14.798 17.586 12.284C438.74 471.316 512 375.39 512 262.32c0-141.39-114.617-256-255.996-256z"/></svg>