<svg xmlns="http://www.w3.org/2000/svg" width="512" height="512" viewBox="0 0 512 512" fill="#fff"><path d="M464 0H48C21.6 0 0 21.6 0 48v416c0 26.4 21.6 48 48 48h416c26.4 0 48-21.6 48-48V48c0-26.4-21.6-48-48-48zM352 80c0-8.8 7.2-16 16-16h64c8.8 0 16 7.2 16 16v64c0 8.8-7.2 16-16 16h-64c-8.8 0-16-7.2-16-16V80zm-96 80c53 0 96 43 96 96s-43 96-96 96-96-43-96-96 43-96 96-96zm192 272c0 8.8-7.2 16-16 16H80c-8.8 0-16-7.2-16-16V224h35.2c-2.1 10.3-3.2 21-3.2 32 0 88.4 71.6 160 160 160s160-71.6 160-160c0-11-1.1-21.7-3.2-32H448v208z"/></svg>