<?xml version="1.0" encoding="utf-8"?>
<!-- Generated by IcoMoon.io -->
<!DOCTYPE svg PUBLIC "-//W3C//DTD SVG 1.1//EN" "http://www.w3.org/Graphics/SVG/1.1/DTD/svg11.dtd">
<svg version="1.1" xmlns="http://www.w3.org/2000/svg" xmlns:xlink="http://www.w3.org/1999/xlink" width="512" height="512" viewBox="0 0 512 512" style="fill:white">
<g id="icomoon-ignore">
</g>
<path d="M464 0h-416c-26.4 0-48 21.6-48 48v416c0 26.4 21.6 48 48 48h416c26.4 0 48-21.6 48-48v-416c0-26.4-21.6-48-48-48zM352 80c0-8.8 7.2-16 16-16h64c8.8 0 16 7.2 16 16v64c0 8.8-7.2 16-16 16h-64c-8.8 0-16-7.2-16-16v-64zM256 160c53 0 96 43 96 96s-43 96-96 96c-53 0-96-43-96-96s43-96 96-96zM448 432v0c0 8.8-7.2 16-16 16h-352c-8.8 0-16-7.2-16-16v0-208h35.2c-2.1 10.3-3.2 21-3.2 32 0 88.4 71.6 160 160 160s160-71.6 160-160c0-11-1.1-21.7-3.2-32h35.2v208z"></path>
</svg>
